<svg xmlns="http://www.w3.org/2000/svg" width="311.0122375488281" height="203.136474609375" viewBox="-155.20223999023438 -71.8660888671875 311.0122375488281 203.136474609375"><title>Neo4j Graph Visualization</title><desc>Created using Neo4j (http://www.neo4j.com/)</desc><g class="layer relationships"><g class="relationship" transform="translate(5.150343368376572 102.2703804904298) rotate(327.7659982235511)"><path class="b-outline" fill="#A5ABB6" stroke="none" d="M 25 0.5 L 53.85670009980379 0.5 L 53.85670009980379 -0.5 L 25 -0.5 Z M 82.96998134980379 0.5 L 111.82668144960758 0.5 L 111.82668144960758 3.5 L 118.82668144960758 0 L 111.82668144960758 -3.5 L 111.82668144960758 -0.5 L 82.96998134980379 -0.5 Z"/><text text-anchor="middle" pointer-events="none" font-size="8px" fill="#000000" x="68.41334072480379" y="3" font-family="Helvetica Neue, Helvetica, Arial, sans-serif">NAME</text></g><g class="relationship" transform="translate(5.150343368376572 102.2703804904298) rotate(266.80652440986535)"><path class="b-outline" fill="#A5ABB6" stroke="none" d="M 25 0.5 L 54.62446128308795 0.5 L 54.62446128308795 -0.5 L 25 -0.5 Z M 83.73774253308795 0.5 L 113.3622038161759 0.5 L 113.3622038161759 3.5 L 120.3622038161759 0 L 113.3622038161759 -3.5 L 113.3622038161759 -0.5 L 83.73774253308795 -0.5 Z"/><text text-anchor="middle" pointer-events="none" font-size="8px" fill="#000000" x="69.18110190808795" y="3" transform="rotate(180 69.18110190808795 0)" font-family="Helvetica Neue, Helvetica, Arial, sans-serif">NAME</text></g><g class="relationship" transform="translate(5.150343368376572 102.2703804904298) rotate(203.70189379886455)"><path class="b-outline" fill="#A5ABB6" stroke="none" d="M 25 0.5 L 53.66983608844687 0.5 L 53.66983608844687 -0.5 L 25 -0.5 Z M 82.78311733844687 0.5 L 111.45295342689374 0.5 L 111.45295342689374 3.5 L 118.45295342689374 0 L 111.45295342689374 -3.5 L 111.45295342689374 -0.5 L 82.78311733844687 -0.5 Z"/><text text-anchor="middle" pointer-events="none" font-size="8px" fill="#000000" x="68.22647671344687" y="3" transform="rotate(180 68.22647671344687 0)" font-family="Helvetica Neue, Helvetica, Arial, sans-serif">NAME</text></g></g><g class="layer nodes"><g class="node" aria-label="graph-node2501" transform="translate(5.150343368376572,102.2703804904298)"><circle class="b-outline" cx="0" cy="0" r="25" fill="#C990C0" stroke="#b261a5" stroke-width="2px"/><text class="caption" text-anchor="middle" pointer-events="none" x="0" y="5" font-size="10px" fill="#FFFFFF" font-family="Helvetica Neue, Helvetica, Arial, sans-serif"> 2501</text></g><g class="node" aria-label="graph-node204776" transform="translate(126.80999433818128,25.556342513588895)"><circle class="b-outline" cx="0" cy="0" r="25" fill="#D9C8AE" stroke="#c0a378" stroke-width="2px"/><text class="caption" text-anchor="middle" pointer-events="none" x="0" y="-5" font-size="10px" fill="#2A2C34" font-family="Helvetica Neue, Helvetica, Arial, sans-serif"> UTNET</text><text class="caption" text-anchor="middle" pointer-events="none" x="0" y="5" font-size="10px" fill="#2A2C34" font-family="Helvetica Neue, Helvetica, Arial, sans-serif"> The</text><text class="caption" text-anchor="middle" pointer-events="none" x="0" y="15" font-size="10px" fill="#2A2C34" font-family="Helvetica Neue, Helvetica, Arial, sans-serif"> Uni…</text></g><g class="node" aria-label="graph-node231093" transform="translate(-2.947466626883963,-42.866092429288514)"><circle class="b-outline" cx="0" cy="0" r="25" fill="#D9C8AE" stroke="#c0a378" stroke-width="2px"/><text class="caption" text-anchor="middle" pointer-events="none" x="0" y="-5" font-size="10px" fill="#2A2C34" font-family="Helvetica Neue, Helvetica, Arial, sans-serif"> The</text><text class="caption" text-anchor="middle" pointer-events="none" x="0" y="5" font-size="10px" fill="#2A2C34" font-family="Helvetica Neue, Helvetica, Arial, sans-serif"> University</text><text class="caption" text-anchor="middle" pointer-events="none" x="0" y="15" font-size="10px" fill="#2A2C34" font-family="Helvetica Neue, Helvetica, Arial, sans-serif"> of T</text></g><g class="node" aria-label="graph-node336161" transform="translate(-126.20225405981725,44.60544317350041)"><circle class="b-outline" cx="0" cy="0" r="25" fill="#D9C8AE" stroke="#c0a378" stroke-width="2px"/><text class="caption" text-anchor="middle" pointer-events="none" x="0" y="5" font-size="10px" fill="#2A2C34" font-family="Helvetica Neue, Helvetica, Arial, sans-serif"> UTnet</text></g></g></svg>