<svg xmlns="http://www.w3.org/2000/svg" width="244.1211395263672" height="171.1475830078125" viewBox="-116.75489807128906 -51.95478057861328 244.1211395263672 171.1475830078125"><title>Neo4j Graph Visualization</title><desc>Created using Neo4j (http://www.neo4j.com/)</desc><g class="layer relationships"><g class="relationship" transform="translate(98.36622911165013 -13.433263582858576) rotate(493.68617353500196)"><path class="b-outline" fill="#A5ABB6" stroke="none" d="M 25 0.5 L 39.146770060519685 0.5 L 39.146770060519685 -0.5 L 25 -0.5 Z M 97.15458256051969 0.5 L 111.30135262103937 0.5 L 111.30135262103937 3.5 L 118.30135262103937 0 L 111.30135262103937 -3.5 L 111.30135262103937 -0.5 L 97.15458256051969 -0.5 Z"/><text text-anchor="middle" pointer-events="none" font-size="8px" fill="#000000" x="68.15067631051969" y="3" transform="rotate(180 68.15067631051969 0)" font-family="Helvetica Neue, Helvetica, Arial, sans-serif">PEERS_WITH</text></g><g class="relationship" transform="translate(-87.75490070701099 -22.95478074117711) rotate(412.39797007340127)"><path class="b-outline" fill="#A5ABB6" stroke="none" d="M 25 0.5 L 38.90347849865988 0.5 L 38.90347849865988 -0.5 L 25 -0.5 Z M 96.91129099865988 0.5 L 110.81476949731976 0.5 L 110.81476949731976 3.5 L 117.81476949731976 0 L 110.81476949731976 -3.5 L 110.81476949731976 -0.5 L 96.91129099865988 -0.5 Z"/><text text-anchor="middle" pointer-events="none" font-size="8px" fill="#000000" x="67.90738474865988" y="3" font-family="Helvetica Neue, Helvetica, Arial, sans-serif">PEERS_WITH</text></g></g><g class="layer nodes"><g class="node" aria-label="graph-node2501" transform="translate(-0.6131510154109913,90.19279478414778)"><circle class="b-outline" cx="0" cy="0" r="25" fill="#C990C0" stroke="#b261a5" stroke-width="2px"/><text class="caption" text-anchor="middle" pointer-events="none" x="0" y="5" font-size="10px" fill="#FFFFFF" font-family="Helvetica Neue, Helvetica, Arial, sans-serif"> 2501</text></g><g class="node" aria-label="graph-node2500" transform="translate(98.36622911165013,-13.433263582858576)"><circle class="b-outline" cx="0" cy="0" r="25" fill="#C990C0" stroke="#b261a5" stroke-width="2px"/><text class="caption" text-anchor="middle" pointer-events="none" x="0" y="5" font-size="10px" fill="#FFFFFF" font-family="Helvetica Neue, Helvetica, Arial, sans-serif"> 2500</text></g><g class="node" aria-label="graph-node2907" transform="translate(-87.75490070701099,-22.95478074117711)"><circle class="b-outline" cx="0" cy="0" r="25" fill="#C990C0" stroke="#b261a5" stroke-width="2px"/><text class="caption" text-anchor="middle" pointer-events="none" x="0" y="5" font-size="10px" fill="#FFFFFF" font-family="Helvetica Neue, Helvetica, Arial, sans-serif"> 2907</text></g></g></svg>