<svg xmlns="http://www.w3.org/2000/svg" width="622.236083984375" height="567.1087646484375" viewBox="-458.7499084472656 -441.6771240234375 622.236083984375 567.1087646484375"><title>Neo4j Graph Visualization</title><desc>Created using Neo4j (http://www.neo4j.com/)</desc><g class="layer relationships"><g class="relationship" transform="translate(-149.63340372768255 -153.63990577984785) rotate(342.7609338355983)"><path class="b-outline" fill="#A5ABB6" stroke="none" d="M 25 0.5 L 52.724799837857404 0.5 L 52.724799837857404 -0.5 L 25 -0.5 Z M 106.28035708883397 0.5 L 134.00515692669137 0.5 L 134.00515692669137 3.5 L 141.00515692669137 0 L 134.00515692669137 -3.5 L 134.00515692669137 -0.5 L 106.28035708883397 -0.5 Z"/><text text-anchor="middle" pointer-events="none" font-size="8px" fill="#000000" x="79.50257846334569" y="3" font-family="Helvetica Neue, Helvetica, Arial, sans-serif">MEMBER_OF</text></g><g class="relationship" transform="translate(8.914223274327114 -202.837081494385) rotate(341.702380005775)"><path class="b-outline" fill="#A5ABB6" stroke="none" d="M 25 0.5 L 41.118503098341975 0.5 L 41.118503098341975 -0.5 L 25 -0.5 Z M 84.14072370991424 0.5 L 100.25922680825622 0.5 L 100.25922680825622 3.5 L 107.25922680825622 0 L 100.25922680825622 -3.5 L 100.25922680825622 -0.5 L 84.14072370991424 -0.5 Z"/><text text-anchor="middle" pointer-events="none" font-size="8px" fill="#000000" x="62.62961340412811" y="3" font-family="Helvetica Neue, Helvetica, Arial, sans-serif">COUNTRY</text></g><g class="relationship" transform="translate(-149.63340372768255 -153.63990577984785) rotate(301.34994346988674)"><path class="b-outline" fill="#A5ABB6" stroke="none" d="M 25 0.5 L 48.59575358559324 0.5 L 48.59575358559324 -0.5 L 25 -0.5 Z M 102.1513108365698 0.5 L 125.74706442216305 0.5 L 125.74706442216305 3.5 L 132.74706442216305 0 L 125.74706442216305 -3.5 L 125.74706442216305 -0.5 L 102.1513108365698 -0.5 Z"/><text text-anchor="middle" pointer-events="none" font-size="8px" fill="#000000" x="75.37353221108152" y="3" font-family="Helvetica Neue, Helvetica, Arial, sans-serif">MEMBER_OF</text></g><g class="relationship" transform="translate(-67.56332800987259 -288.35679041382014) rotate(270.7833082371042)"><path class="b-outline" fill="#A5ABB6" stroke="none" d="M 25 0.5 L 37.15487293003567 0.5 L 37.15487293003567 -0.5 L 25 -0.5 Z M 80.17709354160795 0.5 L 92.33196647164361 0.5 L 92.33196647164361 3.5 L 99.33196647164361 0 L 92.33196647164361 -3.5 L 92.33196647164361 -0.5 L 80.17709354160795 -0.5 Z"/><text text-anchor="middle" pointer-events="none" font-size="8px" fill="#000000" x="58.665983235821805" y="3" font-family="Helvetica Neue, Helvetica, Arial, sans-serif">COUNTRY</text></g><g class="relationship" transform="translate(-149.63340372768255 -153.63990577984785) rotate(385.912355934724)"><path class="b-outline" fill="#A5ABB6" stroke="none" d="M 25 0.5 L 49.61671071077481 0.5 L 49.61671071077481 -0.5 L 25 -0.5 Z M 103.17226796175137 0.5 L 127.78897867252618 0.5 L 127.78897867252618 3.5 L 134.78897867252618 0 L 127.78897867252618 -3.5 L 127.78897867252618 -0.5 L 103.17226796175137 -0.5 Z"/><text text-anchor="middle" pointer-events="none" font-size="8px" fill="#000000" x="76.39448933626309" y="3" font-family="Helvetica Neue, Helvetica, Arial, sans-serif">MEMBER_OF</text></g><g class="relationship" transform="translate(-5.909039966878495 -83.81279810123135) rotate(490.29536392645)"><path class="b-outline" fill="#A5ABB6" stroke="none" d="M 25 0.5 L 93.14774784201586 0.5 L 93.14774784201586 -0.5 L 25 -0.5 Z M 136.16996845358813 0.5 L 204.317716295604 0.5 L 204.317716295604 3.5 L 211.317716295604 0 L 204.317716295604 -3.5 L 204.317716295604 -0.5 L 136.16996845358813 -0.5 Z"/><text text-anchor="middle" pointer-events="none" font-size="8px" fill="#000000" x="114.658858147802" y="3" transform="rotate(180 114.658858147802 0)" font-family="Helvetica Neue, Helvetica, Arial, sans-serif">COUNTRY</text></g><g class="relationship" transform="translate(-149.63340372768255 -153.63990577984785) rotate(227.24718214496136)"><path class="b-outline" fill="#A5ABB6" stroke="none" d="M 25 0.5 L 39.54006652501569 0.5 L 39.54006652501569 -0.5 L 25 -0.5 Z M 93.09562377599225 0.5 L 107.63569030100794 0.5 L 107.63569030100794 3.5 L 114.63569030100794 0 L 107.63569030100794 -3.5 L 107.63569030100794 -0.5 L 93.09562377599225 -0.5 Z"/><text text-anchor="middle" pointer-events="none" font-size="8px" fill="#000000" x="66.31784515050397" y="3" transform="rotate(180 66.31784515050397 0)" font-family="Helvetica Neue, Helvetica, Arial, sans-serif">MEMBER_OF</text></g><g class="relationship" transform="translate(-244.4232571800288 -256.17287456707123) rotate(227.3347663709692)"><path class="b-outline" fill="#A5ABB6" stroke="none" d="M 25 0.5 L 34.137923388790206 0.5 L 34.137923388790206 -0.5 L 25 -0.5 Z M 77.16014400036246 0.5 L 86.29806738915268 0.5 L 86.29806738915268 3.5 L 93.29806738915268 0 L 86.29806738915268 -3.5 L 86.29806738915268 -0.5 L 77.16014400036246 -0.5 Z"/><text text-anchor="middle" pointer-events="none" font-size="8px" fill="#000000" x="55.64903369457634" y="3" transform="rotate(180 55.64903369457634 0)" font-family="Helvetica Neue, Helvetica, Arial, sans-serif">COUNTRY</text></g><g class="relationship" transform="translate(-149.63340372768255 -153.63990577984785) rotate(278.88094009589184)"><path class="b-outline" fill="#A5ABB6" stroke="none" d="M 25 0.5 L 43.847234965676236 0.5 L 43.847234965676236 -0.5 L 25 -0.5 Z M 97.4027922166528 0.5 L 116.25002718232903 0.5 L 116.25002718232903 3.5 L 123.25002718232903 0 L 116.25002718232903 -3.5 L 116.25002718232903 -0.5 L 97.4027922166528 -0.5 Z"/><text text-anchor="middle" pointer-events="none" font-size="8px" fill="#000000" x="70.62501359116452" y="3" font-family="Helvetica Neue, Helvetica, Arial, sans-serif">MEMBER_OF</text></g><g class="relationship" transform="translate(-126.74630881310493 -300.11260441659863) rotate(298.40759783832635)"><path class="b-outline" fill="#A5ABB6" stroke="none" d="M 25 0.5 L 38.976150921021805 0.5 L 38.976150921021805 -0.5 L 25 -0.5 Z M 81.99837153259406 0.5 L 95.97452245361588 0.5 L 95.97452245361588 3.5 L 102.97452245361588 0 L 95.97452245361588 -3.5 L 95.97452245361588 -0.5 L 81.99837153259406 -0.5 Z"/><text text-anchor="middle" pointer-events="none" font-size="8px" fill="#000000" x="60.48726122680794" y="3" font-family="Helvetica Neue, Helvetica, Arial, sans-serif">COUNTRY</text></g><g class="relationship" transform="translate(-149.63340372768255 -153.63990577984785) rotate(406.20914501458617)"><path class="b-outline" fill="#A5ABB6" stroke="none" d="M 25 0.5 L 32.689286267665935 0.5 L 32.689286267665935 -0.5 L 25 -0.5 Z M 86.2448435186425 0.5 L 93.93412978630843 0.5 L 93.93412978630843 3.5 L 100.93412978630843 0 L 93.93412978630843 -3.5 L 93.93412978630843 -0.5 L 86.2448435186425 -0.5 Z"/><text text-anchor="middle" pointer-events="none" font-size="8px" fill="#000000" x="59.467064893154216" y="3" font-family="Helvetica Neue, Helvetica, Arial, sans-serif">MEMBER_OF</text></g><g class="relationship" transform="translate(-62.48346423551129 -62.7317483265936) rotate(481.16472593662905)"><path class="b-outline" fill="#A5ABB6" stroke="none" d="M 25 0.5 L 67.99257880195766 0.5 L 67.99257880195766 -0.5 L 25 -0.5 Z M 111.01479941352993 0.5 L 154.0073782154876 0.5 L 154.0073782154876 3.5 L 161.0073782154876 0 L 154.0073782154876 -3.5 L 154.0073782154876 -0.5 L 111.01479941352993 -0.5 Z"/><text text-anchor="middle" pointer-events="none" font-size="8px" fill="#000000" x="89.5036891077438" y="3" transform="rotate(180 89.5036891077438 0)" font-family="Helvetica Neue, Helvetica, Arial, sans-serif">COUNTRY</text></g><g class="relationship" transform="translate(-149.63340372768255 -153.63990577984785) rotate(534.4441099712907)"><path class="b-outline" fill="#A5ABB6" stroke="none" d="M 25 0.5 L 45.3745653229317 0.5 L 45.3745653229317 -0.5 L 25 -0.5 Z M 98.93012257390826 0.5 L 119.30468789683997 0.5 L 119.30468789683997 3.5 L 126.30468789683997 0 L 119.30468789683997 -3.5 L 119.30468789683997 -0.5 L 98.93012257390826 -0.5 Z"/><text text-anchor="middle" pointer-events="none" font-size="8px" fill="#000000" x="72.15234394841998" y="3" transform="rotate(180 72.15234394841998 0)" font-family="Helvetica Neue, Helvetica, Arial, sans-serif">MEMBER_OF</text></g><g class="relationship" transform="translate(-300.22729709580096 -138.99108808721732) rotate(199.36546583821803)"><path class="b-outline" fill="#A5ABB6" stroke="none" d="M 25 0.5 L 43.63395014963103 0.5 L 43.63395014963103 -0.5 L 25 -0.5 Z M 86.6561707612033 0.5 L 105.29012091083433 0.5 L 105.29012091083433 3.5 L 112.29012091083433 0 L 105.29012091083433 -3.5 L 105.29012091083433 -0.5 L 86.6561707612033 -0.5 Z"/><text text-anchor="middle" pointer-events="none" font-size="8px" fill="#000000" x="65.14506045541717" y="3" transform="rotate(180 65.14506045541717 0)" font-family="Helvetica Neue, Helvetica, Arial, sans-serif">COUNTRY</text></g><g class="relationship" transform="translate(-149.63340372768255 -153.63990577984785) rotate(322.1887836207587)"><path class="b-outline" fill="#A5ABB6" stroke="none" d="M 25 0.5 L 51.491408407153486 0.5 L 51.491408407153486 -0.5 L 25 -0.5 Z M 105.04696565813005 0.5 L 131.53837406528353 0.5 L 131.53837406528353 3.5 L 138.53837406528353 0 L 131.53837406528353 -3.5 L 131.53837406528353 -0.5 L 105.04696565813005 -0.5 Z"/><text text-anchor="middle" pointer-events="none" font-size="8px" fill="#000000" x="78.26918703264177" y="3" font-family="Helvetica Neue, Helvetica, Arial, sans-serif">MEMBER_OF</text></g><g class="relationship" transform="translate(-20.432362268793838 -253.89902345926453) rotate(363.52340869935745)"><path class="b-outline" fill="#A5ABB6" stroke="none" d="M 25 0.5 L 52.5948776455123 0.5 L 52.5948776455123 -0.5 L 25 -0.5 Z M 95.61709825708456 0.5 L 123.21197590259686 0.5 L 123.21197590259686 3.5 L 130.21197590259686 0 L 123.21197590259686 -3.5 L 123.21197590259686 -0.5 L 95.61709825708456 -0.5 Z"/><text text-anchor="middle" pointer-events="none" font-size="8px" fill="#000000" x="74.10598795129843" y="3" font-family="Helvetica Neue, Helvetica, Arial, sans-serif">COUNTRY</text></g><g class="relationship" transform="translate(-149.63340372768255 -153.63990577984785) rotate(435.2714916263493)"><path class="b-outline" fill="#A5ABB6" stroke="none" d="M 25 0.5 L 30.97509078148839 0.5 L 30.97509078148839 -0.5 L 25 -0.5 Z M 84.53064803246495 0.5 L 90.50573881395334 0.5 L 90.50573881395334 3.5 L 97.50573881395334 0 L 90.50573881395334 -3.5 L 90.50573881395334 -0.5 L 84.53064803246495 -0.5 Z"/><text text-anchor="middle" pointer-events="none" font-size="8px" fill="#000000" x="57.75286940697667" y="3" font-family="Helvetica Neue, Helvetica, Arial, sans-serif">MEMBER_OF</text></g><g class="relationship" transform="translate(-118.48764371081737 -35.15953746794397) rotate(467.00925570877916)"><path class="b-outline" fill="#A5ABB6" stroke="none" d="M 25 0.5 L 43.79417624103087 0.5 L 43.79417624103087 -0.5 L 25 -0.5 Z M 86.81639685260313 0.5 L 105.610573093634 0.5 L 105.610573093634 3.5 L 112.610573093634 0 L 105.610573093634 -3.5 L 105.610573093634 -0.5 L 86.81639685260313 -0.5 Z"/><text text-anchor="middle" pointer-events="none" font-size="8px" fill="#000000" x="65.305286546817" y="3" transform="rotate(180 65.305286546817 0)" font-family="Helvetica Neue, Helvetica, Arial, sans-serif">COUNTRY</text></g><g class="relationship" transform="translate(-149.63340372768255 -153.63990577984785) rotate(364.1271370964328)"><path class="b-outline" fill="#A5ABB6" stroke="none" d="M 25 0.5 L 51.12763644751591 0.5 L 51.12763644751591 -0.5 L 25 -0.5 Z M 104.68319369849247 0.5 L 130.81083014600839 0.5 L 130.81083014600839 3.5 L 137.81083014600839 0 L 130.81083014600839 -3.5 L 130.81083014600839 -0.5 L 104.68319369849247 -0.5 Z"/><text text-anchor="middle" pointer-events="none" font-size="8px" fill="#000000" x="77.90541507300419" y="3" font-family="Helvetica Neue, Helvetica, Arial, sans-serif">MEMBER_OF</text></g><g class="relationship" transform="translate(12.75522661110761 -141.92243380317345) rotate(319.91905994311105)"><path class="b-outline" fill="#A5ABB6" stroke="none" d="M 25 0.5 L 54.53753185688328 0.5 L 54.53753185688328 -0.5 L 25 -0.5 Z M 97.55975246845554 0.5 L 127.09728432533882 0.5 L 127.09728432533882 3.5 L 134.09728432533882 0 L 127.09728432533882 -3.5 L 127.09728432533882 -0.5 L 97.55975246845554 -0.5 Z"/><text text-anchor="middle" pointer-events="none" font-size="8px" fill="#000000" x="76.04864216266941" y="3" font-family="Helvetica Neue, Helvetica, Arial, sans-serif">COUNTRY</text></g><g class="relationship" transform="translate(-149.63340372768255 -153.63990577984785) rotate(488.61704063252307)"><path class="b-outline" fill="#A5ABB6" stroke="none" d="M 25 0.5 L 32.63777641339721 0.5 L 32.63777641339721 -0.5 L 25 -0.5 Z M 86.19333366437377 0.5 L 93.83111007777099 0.5 L 93.83111007777099 3.5 L 100.83111007777099 0 L 93.83111007777099 -3.5 L 93.83111007777099 -0.5 L 86.19333366437377 -0.5 Z"/><text text-anchor="middle" pointer-events="none" font-size="8px" fill="#000000" x="59.41555503888549" y="3" transform="rotate(180 59.41555503888549 0)" font-family="Helvetica Neue, Helvetica, Arial, sans-serif">MEMBER_OF</text></g><g class="relationship" transform="translate(-228.16611014694053 -55.323669654420655) rotate(425.41723798661303)"><path class="b-outline" fill="#A5ABB6" stroke="none" d="M 25 0.5 L 58.429473162434434 0.5 L 58.429473162434434 -0.5 L 25 -0.5 Z M 101.4516937740067 0.5 L 134.88116693644113 0.5 L 134.88116693644113 3.5 L 141.88116693644113 0 L 134.88116693644113 -3.5 L 134.88116693644113 -0.5 L 101.4516937740067 -0.5 Z"/><text text-anchor="middle" pointer-events="none" font-size="8px" fill="#000000" x="79.94058346822057" y="3" font-family="Helvetica Neue, Helvetica, Arial, sans-serif">COUNTRY</text></g><g class="relationship" transform="translate(-149.63340372768255 -153.63990577984785) rotate(462.38773232942464)"><path class="b-outline" fill="#A5ABB6" stroke="none" d="M 25 0.5 L 28.707819519657065 0.5 L 28.707819519657065 -0.5 L 25 -0.5 Z M 82.26337677063363 0.5 L 85.97119629029069 0.5 L 85.97119629029069 3.5 L 92.97119629029069 0 L 85.97119629029069 -3.5 L 85.97119629029069 -0.5 L 82.26337677063363 -0.5 Z"/><text text-anchor="middle" pointer-events="none" font-size="8px" fill="#000000" x="55.485598145145346" y="3" transform="rotate(180 55.485598145145346 0)" font-family="Helvetica Neue, Helvetica, Arial, sans-serif">MEMBER_OF</text></g><g class="relationship" transform="translate(-174.94131685337766 -38.41528737134728) rotate(443.14995946596315)"><path class="b-outline" fill="#A5ABB6" stroke="none" d="M 25 0.5 L 42.897084639120294 0.5 L 42.897084639120294 -0.5 L 25 -0.5 Z M 85.91930525069256 0.5 L 103.81638988981285 0.5 L 103.81638988981285 3.5 L 110.81638988981285 0 L 103.81638988981285 -3.5 L 103.81638988981285 -0.5 L 85.91930525069256 -0.5 Z"/><text text-anchor="middle" pointer-events="none" font-size="8px" fill="#000000" x="64.40819494490643" y="3" font-family="Helvetica Neue, Helvetica, Arial, sans-serif">COUNTRY</text></g><g class="relationship" transform="translate(-149.63340372768255 -153.63990577984785) rotate(200.62622302978906)"><path class="b-outline" fill="#A5ABB6" stroke="none" d="M 25 0.5 L 42.063934408570105 0.5 L 42.063934408570105 -0.5 L 25 -0.5 Z M 95.61949165954667 0.5 L 112.68342606811677 0.5 L 112.68342606811677 3.5 L 119.68342606811677 0 L 112.68342606811677 -3.5 L 112.68342606811677 -0.5 L 95.61949165954667 -0.5 Z"/><text text-anchor="middle" pointer-events="none" font-size="8px" fill="#000000" x="68.84171303405839" y="3" transform="rotate(180 68.84171303405839 0)" font-family="Helvetica Neue, Helvetica, Arial, sans-serif">MEMBER_OF</text></g><g class="relationship" transform="translate(-285.04239176938466 -204.60753998362847) rotate(532.095244649763)"><path class="b-outline" fill="#A5ABB6" stroke="none" d="M 25 0.5 L 48.03674697485802 0.5 L 48.03674697485802 -0.5 L 25 -0.5 Z M 91.05896758643028 0.5 L 114.0957145612883 0.5 L 114.0957145612883 3.5 L 121.0957145612883 0 L 114.0957145612883 -3.5 L 114.0957145612883 -0.5 L 91.05896758643028 -0.5 Z"/><text text-anchor="middle" pointer-events="none" font-size="8px" fill="#000000" x="69.54785728064415" y="3" transform="rotate(180 69.54785728064415 0)" font-family="Helvetica Neue, Helvetica, Arial, sans-serif">COUNTRY</text></g><g class="relationship" transform="translate(-149.63340372768255 -153.63990577984785) rotate(254.40178575138708)"><path class="b-outline" fill="#A5ABB6" stroke="none" d="M 25 0.5 L 41.2946121891179 0.5 L 41.2946121891179 -0.5 L 25 -0.5 Z M 94.85016944009446 0.5 L 111.14478162921236 0.5 L 111.14478162921236 3.5 L 118.14478162921236 0 L 111.14478162921236 -3.5 L 111.14478162921236 -0.5 L 94.85016944009446 -0.5 Z"/><text text-anchor="middle" pointer-events="none" font-size="8px" fill="#000000" x="68.07239081460618" y="3" transform="rotate(180 68.07239081460618 0)" font-family="Helvetica Neue, Helvetica, Arial, sans-serif">MEMBER_OF</text></g><g class="relationship" transform="translate(-188.12357562632627 -291.512800776971) rotate(253.14597260008952)"><path class="b-outline" fill="#A5ABB6" stroke="none" d="M 25 0.5 L 32.65935270640893 0.5 L 32.65935270640893 -0.5 L 25 -0.5 Z M 75.68157331798119 0.5 L 83.34092602439013 0.5 L 83.34092602439013 3.5 L 90.34092602439013 0 L 83.34092602439013 -3.5 L 83.34092602439013 -0.5 L 75.68157331798119 -0.5 Z"/><text text-anchor="middle" pointer-events="none" font-size="8px" fill="#000000" x="54.170463012195064" y="3" transform="rotate(180 54.170463012195064 0)" font-family="Helvetica Neue, Helvetica, Arial, sans-serif">COUNTRY</text></g><g class="relationship" transform="translate(-149.63340372768255 -153.63990577984785) rotate(511.5049770647189)"><path class="b-outline" fill="#A5ABB6" stroke="none" d="M 25 0.5 L 45.32837293550324 0.5 L 45.32837293550324 -0.5 L 25 -0.5 Z M 98.8839301864798 0.5 L 119.21230312198304 0.5 L 119.21230312198304 3.5 L 126.21230312198304 0 L 119.21230312198304 -3.5 L 119.21230312198304 -0.5 L 98.8839301864798 -0.5 Z"/><text text-anchor="middle" pointer-events="none" font-size="8px" fill="#000000" x="72.10615156099152" y="3" transform="rotate(180 72.10615156099152 0)" font-family="Helvetica Neue, Helvetica, Arial, sans-serif">MEMBER_OF</text></g><g class="relationship" transform="translate(-282.5276304464699 -81.49917442598628) rotate(415.1739146424933)"><path class="b-outline" fill="#A5ABB6" stroke="none" d="M 25 0.5 L 83.36573358566422 0.5 L 83.36573358566422 -0.5 L 25 -0.5 Z M 126.38795419723648 0.5 L 184.7536877829007 0.5 L 184.7536877829007 3.5 L 191.7536877829007 0 L 184.7536877829007 -3.5 L 184.7536877829007 -0.5 L 126.38795419723648 -0.5 Z"/><text text-anchor="middle" pointer-events="none" font-size="8px" fill="#000000" x="104.87684389145035" y="3" font-family="Helvetica Neue, Helvetica, Arial, sans-serif">COUNTRY</text></g></g><g class="layer nodes"><g class="node" aria-label="graph-node2497" transform="translate(-149.63340372768255,-153.63990577984785)"><circle class="b-outline" cx="0" cy="0" r="25" fill="#D9C8AE" stroke="#c0a378" stroke-width="2px"/><text class="caption" text-anchor="middle" pointer-events="none" x="0" y="5" font-size="10px" fill="#2A2C34" font-family="Helvetica Neue, Helvetica, Arial, sans-serif"> 2497</text></g><g class="node" aria-label="graph-node227173" transform="translate(134.48622779653758,-244.3602648525009)"><circle class="b-outline" cx="0" cy="0" r="25" fill="#F16667" stroke="#eb2728" stroke-width="2px"/><text class="caption" text-anchor="middle" pointer-events="none" x="0" y="5" font-size="10px" fill="#FFFFFF" font-family="Helvetica Neue, Helvetica, Arial, sans-serif"> Japan</text></g><g class="node" aria-label="graph-node227238" transform="translate(-65.86360037641336,-412.6771379546711)"><circle class="b-outline" cx="0" cy="0" r="25" fill="#F16667" stroke="#eb2728" stroke-width="2px"/><text class="caption" text-anchor="middle" pointer-events="none" x="0" y="5" font-size="10px" fill="#FFFFFF" font-family="Helvetica Neue, Helvetica, Arial, sans-serif"> Singapo…</text></g><g class="node" aria-label="graph-node227245" transform="translate(-158.74233965388134,96.43160692137218)"><circle class="b-outline" cx="0" cy="0" r="25" fill="#F16667" stroke="#eb2728" stroke-width="2px"/><text class="caption" text-anchor="middle" pointer-events="none" x="0" y="-5" font-size="10px" fill="#FFFFFF" font-family="Helvetica Neue, Helvetica, Arial, sans-serif"> United</text><text class="caption" text-anchor="middle" pointer-events="none" x="0" y="5" font-size="10px" fill="#FFFFFF" font-family="Helvetica Neue, Helvetica, Arial, sans-serif"> States of</text><text class="caption" text-anchor="middle" pointer-events="none" x="0" y="15" font-size="10px" fill="#FFFFFF" font-family="Helvetica Neue, Helvetica, Arial, sans-serif"> Am</text></g><g class="node" aria-label="graph-node227286" transform="translate(-324.5954672443961,-343.1605143867805)"><circle class="b-outline" cx="0" cy="0" r="25" fill="#F16667" stroke="#eb2728" stroke-width="2px"/><text class="caption" text-anchor="middle" pointer-events="none" x="0" y="-5" font-size="10px" fill="#FFFFFF" font-family="Helvetica Neue, Helvetica, Arial, sans-serif"> United</text><text class="caption" text-anchor="middle" pointer-events="none" x="0" y="5" font-size="10px" fill="#FFFFFF" font-family="Helvetica Neue, Helvetica, Arial, sans-serif"> Kingdom</text><text class="caption" text-anchor="middle" pointer-events="none" x="0" y="15" font-size="10px" fill="#FFFFFF" font-family="Helvetica Neue, Helvetica, Arial, sans-serif"> of G</text></g><g class="node" aria-label="graph-node227285" transform="translate(-429.74991250748997,-184.51547052813805)"><circle class="b-outline" cx="0" cy="0" r="25" fill="#F16667" stroke="#eb2728" stroke-width="2px"/><text class="caption" text-anchor="middle" pointer-events="none" x="0" y="0" font-size="10px" fill="#FFFFFF" font-family="Helvetica Neue, Helvetica, Arial, sans-serif"> Hong</text><text class="caption" text-anchor="middle" pointer-events="none" x="0" y="10" font-size="10px" fill="#FFFFFF" font-family="Helvetica Neue, Helvetica, Arial, sans-serif"> Kong</text></g><g class="node" aria-label="graph-node227319" transform="translate(-221.56487532770234,-401.89943352952207)"><circle class="b-outline" cx="0" cy="0" r="25" fill="#F16667" stroke="#eb2728" stroke-width="2px"/><text class="caption" text-anchor="middle" pointer-events="none" x="0" y="5" font-size="10px" fill="#FFFFFF" font-family="Helvetica Neue, Helvetica, Arial, sans-serif"> Germany</text></g><g class="node" aria-label="graph-node3592651" transform="translate(8.914223274327114,-202.837081494385)"><circle class="b-outline" cx="0" cy="0" r="25" fill="#8DCC93" stroke="#5db665" stroke-width="2px"/><text class="caption" text-anchor="middle" pointer-events="none" x="0" y="5" font-size="10px" fill="#2A2C34" font-family="Helvetica Neue, Helvetica, Arial, sans-serif"> DIX-IE</text></g><g class="node" aria-label="graph-node3593084" transform="translate(-67.56332800987259,-288.35679041382014)"><circle class="b-outline" cx="0" cy="0" r="25" fill="#8DCC93" stroke="#5db665" stroke-width="2px"/><text class="caption" text-anchor="middle" pointer-events="none" x="0" y="0" font-size="10px" fill="#2A2C34" font-family="Helvetica Neue, Helvetica, Arial, sans-serif"> Equinix</text><text class="caption" text-anchor="middle" pointer-events="none" x="0" y="10" font-size="10px" fill="#2A2C34" font-family="Helvetica Neue, Helvetica, Arial, sans-serif"> Singa…</text></g><g class="node" aria-label="graph-node3593106" transform="translate(-5.909039966878495,-83.81279810123135)"><circle class="b-outline" cx="0" cy="0" r="25" fill="#8DCC93" stroke="#5db665" stroke-width="2px"/><text class="caption" text-anchor="middle" pointer-events="none" x="0" y="0" font-size="10px" fill="#2A2C34" font-family="Helvetica Neue, Helvetica, Arial, sans-serif"> NYIIX</text><text class="caption" text-anchor="middle" pointer-events="none" x="0" y="10" font-size="10px" fill="#2A2C34" font-family="Helvetica Neue, Helvetica, Arial, sans-serif"> Y…</text></g><g class="node" aria-label="graph-node3592742" transform="translate(-244.4232571800288,-256.17287456707123)"><circle class="b-outline" cx="0" cy="0" r="25" fill="#8DCC93" stroke="#5db665" stroke-width="2px"/><text class="caption" text-anchor="middle" pointer-events="none" x="0" y="0" font-size="10px" fill="#2A2C34" font-family="Helvetica Neue, Helvetica, Arial, sans-serif"> LINX</text><text class="caption" text-anchor="middle" pointer-events="none" x="0" y="10" font-size="10px" fill="#2A2C34" font-family="Helvetica Neue, Helvetica, Arial, sans-serif"> LON1</text></g><g class="node" aria-label="graph-node3592756" transform="translate(-126.74630881310493,-300.11260441659863)"><circle class="b-outline" cx="0" cy="0" r="25" fill="#8DCC93" stroke="#5db665" stroke-width="2px"/><text class="caption" text-anchor="middle" pointer-events="none" x="0" y="5" font-size="10px" fill="#2A2C34" font-family="Helvetica Neue, Helvetica, Arial, sans-serif"> SGIX</text></g><g class="node" aria-label="graph-node3593157" transform="translate(-62.48346423551129,-62.7317483265936)"><circle class="b-outline" cx="0" cy="0" r="25" fill="#8DCC93" stroke="#5db665" stroke-width="2px"/><text class="caption" text-anchor="middle" pointer-events="none" x="0" y="0" font-size="10px" fill="#2A2C34" font-family="Helvetica Neue, Helvetica, Arial, sans-serif"> SIX</text><text class="caption" text-anchor="middle" pointer-events="none" x="0" y="10" font-size="10px" fill="#2A2C34" font-family="Helvetica Neue, Helvetica, Arial, sans-serif"> Seattle</text></g><g class="node" aria-label="graph-node3592476" transform="translate(-300.22729709580096,-138.99108808721732)"><circle class="b-outline" cx="0" cy="0" r="25" fill="#8DCC93" stroke="#5db665" stroke-width="2px"/><text class="caption" text-anchor="middle" pointer-events="none" x="0" y="5" font-size="10px" fill="#2A2C34" font-family="Helvetica Neue, Helvetica, Arial, sans-serif"> HKIX</text></g><g class="node" aria-label="graph-node3592506" transform="translate(-20.432362268793838,-253.89902345926453)"><circle class="b-outline" cx="0" cy="0" r="25" fill="#8DCC93" stroke="#5db665" stroke-width="2px"/><text class="caption" text-anchor="middle" pointer-events="none" x="0" y="0" font-size="10px" fill="#2A2C34" font-family="Helvetica Neue, Helvetica, Arial, sans-serif"> JPNAP</text><text class="caption" text-anchor="middle" pointer-events="none" x="0" y="10" font-size="10px" fill="#2A2C34" font-family="Helvetica Neue, Helvetica, Arial, sans-serif"> Tokyo</text></g><g class="node" aria-label="graph-node3592350" transform="translate(-118.48764371081737,-35.15953746794397)"><circle class="b-outline" cx="0" cy="0" r="25" fill="#8DCC93" stroke="#5db665" stroke-width="2px"/><text class="caption" text-anchor="middle" pointer-events="none" x="0" y="0" font-size="10px" fill="#2A2C34" font-family="Helvetica Neue, Helvetica, Arial, sans-serif"> Equinix</text><text class="caption" text-anchor="middle" pointer-events="none" x="0" y="10" font-size="10px" fill="#2A2C34" font-family="Helvetica Neue, Helvetica, Arial, sans-serif"> Ashbu…</text></g><g class="node" aria-label="graph-node3592864" transform="translate(12.75522661110761,-141.92243380317345)"><circle class="b-outline" cx="0" cy="0" r="25" fill="#8DCC93" stroke="#5db665" stroke-width="2px"/><text class="caption" text-anchor="middle" pointer-events="none" x="0" y="0" font-size="10px" fill="#2A2C34" font-family="Helvetica Neue, Helvetica, Arial, sans-serif"> JPNAP</text><text class="caption" text-anchor="middle" pointer-events="none" x="0" y="10" font-size="10px" fill="#2A2C34" font-family="Helvetica Neue, Helvetica, Arial, sans-serif"> Osaka</text></g><g class="node" aria-label="graph-node3592854" transform="translate(-228.16611014694053,-55.323669654420655)"><circle class="b-outline" cx="0" cy="0" r="25" fill="#8DCC93" stroke="#5db665" stroke-width="2px"/><text class="caption" text-anchor="middle" pointer-events="none" x="0" y="0" font-size="10px" fill="#2A2C34" font-family="Helvetica Neue, Helvetica, Arial, sans-serif"> Equinix</text><text class="caption" text-anchor="middle" pointer-events="none" x="0" y="10" font-size="10px" fill="#2A2C34" font-family="Helvetica Neue, Helvetica, Arial, sans-serif"> Y…</text></g><g class="node" aria-label="graph-node3592580" transform="translate(-174.94131685337766,-38.41528737134728)"><circle class="b-outline" cx="0" cy="0" r="25" fill="#8DCC93" stroke="#5db665" stroke-width="2px"/><text class="caption" text-anchor="middle" pointer-events="none" x="0" y="-5" font-size="10px" fill="#2A2C34" font-family="Helvetica Neue, Helvetica, Arial, sans-serif"> Equinix</text><text class="caption" text-anchor="middle" pointer-events="none" x="0" y="5" font-size="10px" fill="#2A2C34" font-family="Helvetica Neue, Helvetica, Arial, sans-serif"> Los</text><text class="caption" text-anchor="middle" pointer-events="none" x="0" y="15" font-size="10px" fill="#2A2C34" font-family="Helvetica Neue, Helvetica, Arial, sans-serif"> Ang…</text></g><g class="node" aria-label="graph-node3592758" transform="translate(-285.04239176938466,-204.60753998362847)"><circle class="b-outline" cx="0" cy="0" r="25" fill="#8DCC93" stroke="#5db665" stroke-width="2px"/><text class="caption" text-anchor="middle" pointer-events="none" x="0" y="-5" font-size="10px" fill="#2A2C34" font-family="Helvetica Neue, Helvetica, Arial, sans-serif"> Equinix</text><text class="caption" text-anchor="middle" pointer-events="none" x="0" y="5" font-size="10px" fill="#2A2C34" font-family="Helvetica Neue, Helvetica, Arial, sans-serif"> Hong</text><text class="caption" text-anchor="middle" pointer-events="none" x="0" y="15" font-size="10px" fill="#2A2C34" font-family="Helvetica Neue, Helvetica, Arial, sans-serif"> Kong</text></g><g class="node" aria-label="graph-node3592159" transform="translate(-188.12357562632627,-291.512800776971)"><circle class="b-outline" cx="0" cy="0" r="25" fill="#8DCC93" stroke="#5db665" stroke-width="2px"/><text class="caption" text-anchor="middle" pointer-events="none" x="0" y="0" font-size="10px" fill="#2A2C34" font-family="Helvetica Neue, Helvetica, Arial, sans-serif"> DE-CIX</text><text class="caption" text-anchor="middle" pointer-events="none" x="0" y="10" font-size="10px" fill="#2A2C34" font-family="Helvetica Neue, Helvetica, Arial, sans-serif"> Frankf…</text></g><g class="node" aria-label="graph-node3592153" transform="translate(-282.5276304464699,-81.49917442598628)"><circle class="b-outline" cx="0" cy="0" r="25" fill="#8DCC93" stroke="#5db665" stroke-width="2px"/><text class="caption" text-anchor="middle" pointer-events="none" x="0" y="0" font-size="10px" fill="#2A2C34" font-family="Helvetica Neue, Helvetica, Arial, sans-serif"> Equinix</text><text class="caption" text-anchor="middle" pointer-events="none" x="0" y="10" font-size="10px" fill="#2A2C34" font-family="Helvetica Neue, Helvetica, Arial, sans-serif"> Jo…</text></g></g></svg>